<svg data-v-423bf9ae="" xmlns="http://www.w3.org/2000/svg" viewBox="0 0 342 90" class="iconLeftSlogan"><!----><!----><!----><g data-v-423bf9ae="" id="9ff54f14-1b39-4997-98ca-4edd1827fa85" fill="white" transform="matrix(5.020920582231347,0,0,5.020920582231347,107.99163011578568,-11.548116861297366)"><path d="M13.46 11.58L13.46 11.58L13.46 11.58Q13.46 12.60 13.11 13.15L13.11 13.15L15.13 13.15L15.13 13.15Q15.00 13.19 14.83 13.34L14.83 13.34L14.83 13.34Q14.66 13.49 14.48 13.65L14.48 13.65L14.48 13.65Q13.99 14.08 13.80 14.08L13.80 14.08L11.77 14.08L11.77 14.08Q12.11 13.58 12.11 12.70L12.11 12.70L12.11 12.70Q12.11 11.83 12.07 11.02L12.07 11.02L12.07 11.02Q12.02 10.21 12.00 9.63L12.00 9.63L12.00 9.63Q11.97 9.04 11.95 8.66L11.95 8.66L11.95 8.66Q11.94 8.28 11.92 7.89L11.92 7.89L11.92 7.89Q11.87 6.75 11.85 6.38L11.85 6.38L11.85 6.38Q11.24 7.44 10.61 8.58L10.61 8.58L10.61 8.58Q9.97 9.71 9.52 10.50L9.52 10.50L9.52 10.50Q9.07 11.29 8.81 11.80L8.81 11.80L8.81 11.80Q8.54 12.31 8.25 12.82L8.25 12.82L8.25 12.82Q8.19 12.92 7.60 13.30L7.60 13.30L7.60 13.30Q7.01 13.69 6.92 13.75L6.92 13.75L6.92 13.75Q6.55 12.60 5.98 11.61L5.98 11.61L5.98 11.61Q5.41 10.62 5.04 10.02L5.04 10.02L5.04 10.02Q4.68 9.43 4.32 8.83L4.32 8.83L3.23 7.02L3.23 7.02Q2.94 10.55 2.79 11.34L2.79 11.34L2.79 11.34Q2.63 12.13 2.49 12.53L2.49 12.53L2.49 12.53Q2.35 12.93 2.14 13.15L2.14 13.15L4.33 13.15L4.33 13.15Q3.19 14.08 3.00 14.08L3.00 14.08L0.75 14.08L0.75 14.08Q1.15 13.69 1.42 12.35L1.42 12.35L1.42 12.35Q1.72 10.86 2.12 5.17L2.12 5.17L0.40 5.17L0.40 5.17Q0.90 4.68 1.59 4.30L1.59 4.30L1.59 4.30Q1.68 4.25 1.73 4.25L1.73 4.25L3.45 4.25L3.45 4.25Q4.03 5.20 4.59 6.14L4.59 6.14L5.73 8.03L5.73 8.03Q6.02 8.51 6.31 8.99L6.31 8.99L6.31 8.99Q6.60 9.46 6.88 9.94L6.88 9.94L6.88 9.94Q7.56 11.11 7.91 11.92L7.91 11.92L7.91 11.92Q8.56 10.78 9.44 9.17L9.44 9.17L9.44 9.17Q11.01 6.28 11.77 4.97L11.77 4.97L11.77 4.97Q11.90 4.76 12.78 4.24L12.78 4.24L12.78 4.24Q12.98 4.12 13.10 4.04L13.10 4.04L13.10 4.04Q13.26 7.03 13.33 8.78L13.33 8.78L13.33 8.78Q13.41 10.53 13.43 10.88L13.43 10.88L13.43 10.88Q13.46 11.22 13.46 11.58ZM16.26 3.41L17.59 2.48L17.63 3.26L17.63 3.62L17.63 3.62Q17.63 3.94 17.55 4.02L17.55 4.02L17.55 4.02Q17.47 4.09 17.37 4.16L17.37 4.16L17.37 4.16Q16.99 4.43 16.26 4.89L16.26 4.89L16.26 4.89Q16.30 4.21 16.30 4.19L16.30 4.19L16.30 4.19Q16.30 4.16 16.26 3.41L16.26 3.41ZM19.02 13.24L19.02 13.24L19.02 13.24Q18.81 13.41 18.62 13.58L18.62 13.58L18.62 13.58Q18.42 13.75 18.21 13.89L18.21 13.89L18.21 13.89Q17.72 14.21 17.27 14.21L17.27 14.21L17.27 14.21Q16.84 14.21 16.67 14.08L16.67 14.08L16.67 14.08Q16.32 13.82 16.32 13.13L16.32 13.13L16.32 9.88L16.32 9.88Q16.32 9.15 16.06 8.93L16.06 8.93L16.06 8.93Q15.93 8.83 15.79 8.83L15.79 8.83L15.79 8.83Q15.65 8.83 15.55 8.84L15.55 8.84L15.55 8.84Q15.45 8.86 15.35 8.88L15.35 8.88L15.35 8.88Q15.24 8.90 15.13 8.92L15.13 8.92L15.13 8.92Q15.48 8.65 15.77 8.44L15.77 8.44L15.77 8.44Q16.07 8.23 16.28 8.09L16.28 8.09L16.28 8.09Q16.50 7.94 16.87 7.68L16.87 7.68L16.87 7.68Q17.25 7.42 17.65 7.21L17.65 7.21L17.65 12.03L17.65 12.03Q17.65 12.73 17.74 12.91L17.74 12.91L17.74 12.91Q17.93 13.29 18.59 13.29L18.59 13.29L18.59 13.29Q18.76 13.29 19.02 13.24ZM20.21 8.16L19.32 8.16L20.21 7.46L20.21 6.49L20.21 6.49Q20.58 6.23 20.73 6.09L20.73 6.09L20.73 6.09Q20.89 5.95 21 5.89L21 5.89L21 5.89Q21.11 5.83 21.23 5.76L21.23 5.76L21.23 5.76Q21.52 5.59 21.54 5.56L21.54 5.56L21.54 7.23L23.73 7.23L23.73 7.23Q23.64 7.23 23.28 7.55L23.28 7.55L23.28 7.55Q22.59 8.16 22.40 8.16L22.40 8.16L21.54 8.16L21.54 11.82L21.54 11.82Q21.54 13.08 22.26 13.28L22.26 13.28L22.26 13.28Q22.48 13.33 22.67 13.33L22.67 13.33L22.67 13.33Q22.99 13.33 23.21 13.24L23.21 13.24L23.21 13.24Q23.43 13.15 23.57 13.07L23.57 13.07L23.57 13.07Q23.15 13.71 22.40 14.04L22.40 14.04L22.40 14.04Q22.01 14.21 21.56 14.21L21.56 14.21L21.56 14.21Q21.12 14.21 20.87 14.05L20.87 14.05L20.87 14.05Q20.62 13.90 20.47 13.64L20.47 13.64L20.47 13.64Q20.21 13.18 20.21 12.41L20.21 12.41L20.21 8.16ZM24.88 3.41L26.20 2.48L26.24 3.26L26.24 3.62L26.24 3.62Q26.24 3.94 26.16 4.02L26.16 4.02L26.16 4.02Q26.08 4.09 25.98 4.16L25.98 4.16L25.98 4.16Q25.60 4.43 24.88 4.89L24.88 4.89L24.88 4.89Q24.91 4.21 24.91 4.19L24.91 4.19L24.91 4.19Q24.91 4.16 24.88 3.41L24.88 3.41ZM27.63 13.24L27.63 13.24L27.63 13.24Q27.43 13.41 27.23 13.58L27.23 13.58L27.23 13.58Q27.04 13.75 26.82 13.89L26.82 13.89L26.82 13.89Q26.33 14.21 25.88 14.21L25.88 14.21L25.88 14.21Q25.46 14.21 25.29 14.08L25.29 14.08L25.29 14.08Q24.94 13.82 24.94 13.13L24.94 13.13L24.94 9.88L24.94 9.88Q24.94 9.15 24.67 8.93L24.67 8.93L24.67 8.93Q24.55 8.83 24.40 8.83L24.40 8.83L24.40 8.83Q24.26 8.83 24.16 8.84L24.16 8.84L24.16 8.84Q24.06 8.86 23.96 8.88L23.96 8.88L23.96 8.88Q23.86 8.90 23.75 8.92L23.75 8.92L23.75 8.92Q24.09 8.65 24.39 8.44L24.39 8.44L24.39 8.44Q24.68 8.23 24.90 8.09L24.90 8.09L24.90 8.09Q25.11 7.94 25.48 7.68L25.48 7.68L25.48 7.68Q25.86 7.42 26.26 7.21L26.26 7.21L26.26 12.03L26.26 12.03Q26.26 12.73 26.35 12.91L26.35 12.91L26.35 12.91Q26.54 13.29 27.20 13.29L27.20 13.29L27.20 13.29Q27.38 13.29 27.63 13.24ZM28.67 13.24L28.67 4.94L28.67 4.94Q28.67 3.92 28.07 3.92L28.07 3.92L28.07 3.92Q27.89 3.92 27.48 4.02L27.48 4.02L27.48 4.02Q27.76 3.81 28.07 3.57L28.07 3.57L28.07 3.57Q28.38 3.34 28.70 3.10L28.70 3.10L28.70 3.10Q29.40 2.62 30.00 2.30L30.00 2.30L30.00 8.58L30.00 8.58Q30.76 7.90 31.70 7.57L31.70 7.57L31.70 7.57Q32.01 7.46 32.25 7.46L32.25 7.46L32.25 7.46Q32.49 7.46 32.68 7.55L32.68 7.55L32.68 7.55Q32.87 7.63 33.00 7.77L33.00 7.77L33.00 7.77Q33.30 8.07 33.30 8.46L33.30 8.46L33.30 8.46Q33.30 8.84 33.11 9.15L33.11 9.15L33.11 9.15Q32.92 9.46 32.63 9.73L32.63 9.73L32.63 9.73Q32.24 10.13 31.47 10.63L31.47 10.63L31.47 10.63Q31.56 10.73 31.77 10.96L31.77 10.96L31.77 10.96Q31.98 11.20 32.24 11.48L32.24 11.48L32.24 11.48Q32.50 11.77 32.80 12.08L32.80 12.08L32.80 12.08Q33.10 12.39 33.37 12.64L33.37 12.64L33.37 12.64Q33.98 13.22 34.17 13.22L34.17 13.22L34.17 13.22Q34.65 13.22 35.12 12.95L35.12 12.95L35.12 12.95Q34.53 13.76 33.67 14.09L33.67 14.09L33.67 14.09Q33.39 14.20 33.17 14.20L33.17 14.20L33.17 14.20Q32.96 14.20 32.83 14.15L32.83 14.15L32.83 14.15Q32.70 14.10 32.59 14.03L32.59 14.03L32.59 14.03Q32.36 13.88 31.98 13.49L31.98 13.49L31.98 13.49Q31.18 12.69 30.00 11.41L30.00 11.41L30.00 12.11L30.00 12.11Q30.00 12.27 29.99 12.47L29.99 12.47L29.99 12.47Q29.99 12.67 30.03 12.86L30.03 12.86L30.03 12.86Q30.13 13.30 30.51 13.30L30.51 13.30L30.51 13.30Q30.65 13.30 30.81 13.23L30.81 13.23L30.81 13.23Q30.67 13.35 30.48 13.52L30.48 13.52L30.48 13.52Q30.29 13.69 30.08 13.85L30.08 13.85L30.08 13.85Q29.57 14.23 29.24 14.23L29.24 14.23L29.24 14.23Q28.67 14.23 28.67 13.24L28.67 13.24ZM30.96 8.39L30.96 8.39L30.96 8.39Q30.00 8.39 30.00 10.86L30.00 10.86L30.00 11.22L30.00 11.22Q31.25 10.72 31.77 9.97L31.77 9.97L31.77 9.97Q31.97 9.68 31.97 9.40L31.97 9.40L31.97 9.40Q31.97 9.13 31.89 8.95L31.89 8.95L31.89 8.95Q31.81 8.78 31.67 8.65L31.67 8.65L31.67 8.65Q31.37 8.39 30.96 8.39ZM40.05 9.28L40.05 12.06L40.04 12.54L40.04 12.54Q40.04 13.07 40.34 13.21L40.34 13.21L40.34 13.21Q40.46 13.27 40.61 13.27L40.61 13.27L40.61 13.27Q40.84 13.27 41.10 13.16L41.10 13.16L41.10 13.16Q40.84 13.27 40.65 13.45L40.65 13.45L40.65 13.45Q40.46 13.62 40.26 13.79L40.26 13.79L40.26 13.79Q39.76 14.21 39.27 14.21L39.27 14.21L39.27 14.21Q38.77 14.21 38.73 13.63L38.73 13.63L38.73 13.63Q38.72 13.48 38.72 13.33L38.72 13.33L38.72 13.33Q37.49 14.18 36.46 14.18L36.46 14.18L36.46 14.18Q35.59 14.18 35.26 13.66L35.26 13.66L35.26 13.66Q35.14 13.47 35.14 13.13L35.14 13.13L35.14 13.13Q35.14 12.80 35.34 12.46L35.34 12.46L35.34 12.46Q35.55 12.12 35.86 11.84L35.86 11.84L35.86 11.84Q36.42 11.32 37.21 10.99L37.21 10.99L37.21 10.99Q37.80 10.73 38.73 10.70L38.73 10.70L38.73 10.40L38.73 10.40Q38.73 9.31 38.53 8.93L38.53 8.93L38.53 8.93Q38.33 8.54 38.01 8.36L38.01 8.36L38.01 8.36Q37.70 8.18 37.28 8.18L37.28 8.18L37.28 8.18Q36.56 8.18 36.01 8.46L36.01 8.46L36.01 8.46Q36.76 7.84 37.11 7.64L37.11 7.64L37.11 7.64Q37.83 7.24 38.41 7.24L38.41 7.24L38.41 7.24Q39.00 7.24 39.29 7.41L39.29 7.41L39.29 7.41Q39.59 7.58 39.76 7.86L39.76 7.86L39.76 7.86Q40.05 8.35 40.05 9.28L40.05 9.28ZM36.84 13.04L36.84 13.04L36.84 13.04Q37.00 13.16 37.22 13.21L37.22 13.21L37.22 13.21Q37.44 13.27 37.87 13.27L37.87 13.27L37.87 13.27Q38.30 13.27 38.73 13.06L38.73 13.06L38.73 11.63L37.62 11.63L37.62 11.63Q37.02 11.63 36.58 11.71L36.58 11.71L36.58 11.71Q36.49 12.00 36.49 12.27L36.49 12.27L36.49 12.27Q36.49 12.54 36.58 12.73L36.58 12.73L36.58 12.73Q36.67 12.92 36.84 13.04ZM44.76 8.78L44.76 8.78L44.76 8.78Q44.89 8.68 44.89 8.57L44.89 8.57L44.89 8.57Q44.89 8.46 44.76 8.40L44.76 8.40L44.76 8.40Q44.63 8.34 44.46 8.31L44.46 8.31L44.46 8.31Q44.19 8.25 43.97 8.25L43.97 8.25L43.97 8.25Q43.74 8.25 43.61 8.27L43.61 8.27L43.61 8.27Q43.48 8.30 43.39 8.36L43.39 8.36L43.39 8.36Q43.20 8.49 43.20 8.82L43.20 8.82L43.20 8.82Q43.20 9.15 43.35 9.35L43.35 9.35L43.35 9.35Q43.49 9.56 43.73 9.71L43.73 9.71L43.73 9.71Q43.96 9.85 44.26 9.95L44.26 9.95L44.26 9.95Q44.56 10.04 44.87 10.13L44.87 10.13L44.87 10.13Q45.19 10.23 45.49 10.34L45.49 10.34L45.49 10.34Q45.79 10.45 46.02 10.62L46.02 10.62L46.02 10.62Q46.55 11.01 46.55 11.68L46.55 11.68L46.55 11.68Q46.55 12.34 45.91 12.97L45.91 12.97L45.91 12.97Q45.37 13.51 44.49 13.89L44.49 13.89L44.49 13.89Q43.67 14.25 43.03 14.25L43.03 14.25L43.03 14.25Q42.25 14.25 41.77 13.92L41.77 13.92L41.77 13.92Q41.60 13.79 41.60 13.60L41.60 13.60L41.60 13.60Q41.60 13.41 41.78 13.24L41.78 13.24L41.78 13.24Q41.96 13.08 42.20 12.94L42.20 12.94L42.20 12.94Q42.44 12.80 42.68 12.68L42.68 12.68L42.68 12.68Q42.92 12.55 43.04 12.41L43.04 12.41L43.04 12.41Q42.92 12.54 42.92 12.71L42.92 12.71L42.92 12.71Q42.92 12.89 43.11 13.01L43.11 13.01L43.11 13.01Q43.30 13.13 43.56 13.19L43.56 13.19L43.56 13.19Q44.01 13.30 44.43 13.30L44.43 13.30L44.43 13.30Q44.84 13.30 45.03 13.15L45.03 13.15L45.03 13.15Q45.22 13.00 45.22 12.63L45.22 12.63L45.22 12.63Q45.22 12.27 45.08 12.04L45.08 12.04L45.08 12.04Q44.93 11.81 44.70 11.65L44.70 11.65L44.70 11.65Q44.47 11.48 44.17 11.37L44.17 11.37L44.17 11.37Q43.87 11.26 43.56 11.15L43.56 11.15L43.56 11.15Q43.24 11.05 42.94 10.94L42.94 10.94L42.94 10.94Q42.64 10.83 42.41 10.67L42.41 10.67L42.41 10.67Q41.89 10.32 41.89 9.76L41.89 9.76L41.89 9.76Q41.89 9.23 42.52 8.62L42.52 8.62L42.52 8.62Q43.07 8.10 43.66 7.81L43.66 7.81L43.66 7.81Q44.68 7.31 45.20 7.31L45.20 7.31L45.20 7.31Q45.74 7.31 45.98 7.43L45.98 7.43L45.98 7.43Q46.22 7.55 46.22 7.63L46.22 7.63L46.22 7.63Q46.22 7.72 46.16 7.79L46.16 7.79L46.16 7.79Q46.11 7.85 46.03 7.91L46.03 7.91L46.03 7.91Q45.95 7.97 45.87 8.02L45.87 8.02L45.87 8.02Q45.79 8.07 45.64 8.16L45.64 8.16L45.64 8.16Q45.49 8.26 45.23 8.42L45.23 8.42L45.23 8.42Q44.98 8.58 44.76 8.78Z"></path></g><!----><g data-v-423bf9ae="" id="7721416b-5e86-40ec-8f30-fdf81dc28751" transform="matrix(2.8125,0,0,2.8125,0,0)" stroke="none" fill="white"><path d="M0 32h32V0H0v32zm19.377-19.492l6.936-6.936v20.855h-6.936V12.508zM5.688 5.572l6.936 6.936v13.919H5.688V5.572z"></path></g><!----><g data-v-423bf9ae="" id="87fdf00b-416e-4a2c-9c5d-ae10bf2258ff" fill="white" transform="matrix(0.7642330993082314,0,0,0.7642330993082314,109.54910453432714,57.75315338046062)"><path d="M0.59 7.91C0.59 11.40 2.95 12.89 5.54 12.89C7.43 12.89 9.44 11.89 9.44 11.58C9.44 11.12 9.45 10.68 9.45 10.33C9.45 9.81 9.46 9.56 9.59 9.56L10.02 9.56C10.16 9.56 10.18 9.39 10.18 9.30C10.18 9.18 10.16 9.06 10.02 9.06C9.80 9.06 9.44 9.10 8.76 9.10C8.32 9.10 7.57 9.07 6.89 9.06C6.75 9.06 6.75 9.24 6.75 9.35C6.75 9.45 6.78 9.56 6.90 9.56L8.12 9.56C8.16 9.56 8.22 9.87 8.22 10.33C8.22 10.82 8.20 11.41 8.18 11.65C8.16 11.76 7.52 12.39 5.94 12.39C3.70 12.39 2.10 10.29 2.10 7.94C2.10 5.42 3.65 3.54 5.66 3.54C7.55 3.54 8.72 4.87 8.72 5.03C8.72 5.15 8.67 6.12 8.67 6.17C8.67 6.31 8.71 6.36 8.97 6.36C9.17 6.36 9.24 6.33 9.24 6.15C9.24 5.43 9.28 3.75 9.28 3.56C9.28 3.36 9.18 3.33 8.97 3.33C8.75 3.33 8.72 3.39 8.72 3.56L8.72 3.91C8.72 3.99 8.68 4.02 8.55 3.92C8.27 3.72 7.28 3.08 5.71 3.08C2.87 3.08 0.59 4.79 0.59 7.91ZM18.21 3.51C18.21 3.72 18.28 3.79 18.48 3.79L19.29 3.77C19.39 3.77 19.43 6.61 19.43 8.55L19.43 10.42C19.43 11.30 19.42 12.18 19.38 12.18L18.77 12.18C18.55 12.18 18.48 12.19 18.48 12.39C18.48 12.63 18.52 12.68 18.72 12.68C18.84 12.68 19.67 12.64 20.09 12.64C20.51 12.64 21.28 12.68 21.60 12.68C21.77 12.68 21.80 12.61 21.80 12.40C21.80 12.24 21.77 12.18 21.60 12.18L20.79 12.18C20.72 12.18 20.64 9.18 20.64 8.37C20.64 8.30 20.64 8.26 20.75 8.26C21.14 8.26 21.74 8.27 22.04 8.27C24.28 8.32 24.42 10.00 24.42 11.68L24.42 12.49C24.42 12.61 24.47 12.64 24.57 12.64C24.57 12.64 26.01 12.68 26.49 12.68C26.66 12.68 26.71 12.64 26.71 12.53C26.71 12.24 26.66 12.18 26.50 12.18L25.86 12.18C25.76 12.18 25.73 12.14 25.70 11.31C25.62 8.99 24.25 8.34 23.34 8.05C23.20 8.01 23.23 8.01 23.34 7.95C23.93 7.69 25.24 6.94 25.24 5.63C25.24 3.63 23.55 3.21 22.15 3.21C21.83 3.21 20.54 3.29 20.12 3.29C19.70 3.29 18.72 3.26 18.49 3.26C18.31 3.26 18.21 3.28 18.21 3.51ZM20.64 7.80L20.64 4.40C20.64 4.05 20.66 3.68 20.71 3.68C20.92 3.65 21.20 3.65 21.42 3.65C22.72 3.65 23.97 4.47 23.97 5.82C23.97 6.99 23.42 7.57 22.76 7.88C22.72 7.90 22.68 7.90 22.61 7.90C22.13 7.88 21.42 7.88 20.82 7.87C20.65 7.87 20.64 7.85 20.64 7.80ZM34.19 3.51C34.19 3.75 34.27 3.77 34.44 3.77L34.97 3.77C35.03 3.77 35.03 4.12 35.03 4.55C35.03 5.66 35.01 8.96 35.01 9.42C35.01 11.13 35.27 12.80 38.12 12.80C39.20 12.80 40.36 12.38 41.02 12.00C41.27 11.86 41.57 11.72 41.65 11.72C41.92 11.72 42.18 12.74 42.52 12.74C42.84 12.74 42.85 12.35 42.85 12.25C42.85 11.96 42.91 10.08 42.95 8.16C43.01 6.12 42.99 3.77 43.11 3.77L43.43 3.77C43.65 3.77 43.72 3.75 43.72 3.56C43.72 3.32 43.68 3.26 43.48 3.26C43.34 3.26 42.81 3.30 42.39 3.30C41.97 3.30 41.17 3.26 40.95 3.26C40.77 3.26 40.67 3.28 40.67 3.51C40.67 3.75 40.78 3.77 40.95 3.77L41.65 3.77C41.72 3.77 41.73 4.30 41.73 4.87L41.73 9.14C41.73 11.19 41.73 11.12 41.40 11.34C41.01 11.61 40.19 12.08 39.02 12.08C37.04 12.08 36.25 11.17 36.25 9.41C36.25 8.82 36.32 3.77 36.43 3.77L37.34 3.77C37.56 3.77 37.60 3.75 37.60 3.56C37.60 3.32 37.59 3.26 37.39 3.26C37.07 3.26 36.19 3.30 35.77 3.30C35.35 3.30 34.66 3.26 34.44 3.26C34.26 3.26 34.19 3.28 34.19 3.51ZM51.76 3.51C51.76 3.75 51.80 3.79 52.01 3.79L52.93 3.77C52.99 3.77 52.99 4.47 52.99 5.24L52.99 5.96C52.99 7.70 52.98 12.18 52.86 12.18L52.19 12.18C51.97 12.18 51.90 12.19 51.90 12.39C51.90 12.63 51.91 12.68 52.11 12.68C52.23 12.68 53.21 12.64 53.63 12.64C54.05 12.64 54.92 12.68 55.24 12.68C55.41 12.68 55.44 12.61 55.44 12.40C55.44 12.24 55.41 12.18 55.24 12.18L54.25 12.18C54.21 12.18 54.19 10.60 54.19 9.58L54.19 8.65C54.19 8.57 54.19 8.54 54.29 8.54C54.68 8.54 55.01 8.58 55.51 8.58C57.50 8.58 58.90 7.83 58.90 6.01C58.90 4.09 57.41 3.22 55.50 3.22C55.17 3.22 54.08 3.29 53.66 3.29C53.42 3.29 52.23 3.26 52.01 3.26C51.83 3.26 51.76 3.28 51.76 3.51ZM54.21 8.05L54.21 4.40C54.21 4.05 54.22 3.70 54.26 3.68C54.39 3.67 54.56 3.67 54.70 3.67C56.35 3.67 57.61 4.47 57.61 5.80C57.61 7.57 56.28 8.19 54.70 8.19C54.45 8.19 54.21 8.16 54.21 8.05ZM66.58 8.15C66.58 11.17 68.92 12.80 71.18 12.80C73.96 12.80 75.94 10.89 75.94 8.06C75.94 5.33 74.19 3.11 71.39 3.11C68.78 3.11 66.58 5.10 66.58 8.15ZM67.98 7.77C67.98 5.64 69.27 3.58 71.25 3.58C73.49 3.58 74.56 5.81 74.56 7.94C74.56 10.08 73.46 12.32 71.19 12.32C69.20 12.32 67.98 10.28 67.98 7.77ZM84.11 7.91C84.11 11.40 86.48 12.89 89.07 12.89C90.96 12.89 92.96 11.89 92.96 11.58C92.96 11.12 92.97 10.68 92.97 10.33C92.97 9.81 92.99 9.56 93.11 9.56L93.55 9.56C93.69 9.56 93.70 9.39 93.70 9.30C93.70 9.18 93.69 9.06 93.55 9.06C93.32 9.06 92.96 9.10 92.29 9.10C91.84 9.10 91.10 9.07 90.41 9.06C90.27 9.06 90.27 9.24 90.27 9.35C90.27 9.45 90.30 9.56 90.43 9.56L91.64 9.56C91.69 9.56 91.74 9.87 91.74 10.33C91.74 10.82 91.73 11.41 91.70 11.65C91.69 11.76 91.04 12.39 89.46 12.39C87.22 12.39 85.62 10.29 85.62 7.94C85.62 5.42 87.18 3.54 89.18 3.54C91.07 3.54 92.25 4.87 92.25 5.03C92.25 5.15 92.19 6.12 92.19 6.17C92.19 6.31 92.23 6.36 92.50 6.36C92.69 6.36 92.76 6.33 92.76 6.15C92.76 5.43 92.81 3.75 92.81 3.56C92.81 3.36 92.71 3.33 92.50 3.33C92.27 3.33 92.25 3.39 92.25 3.56L92.25 3.91C92.25 3.99 92.20 4.02 92.08 3.92C91.80 3.72 90.80 3.08 89.24 3.08C86.39 3.08 84.11 4.79 84.11 7.91ZM101.67 12.39C101.67 12.63 101.70 12.68 101.89 12.68C102.13 12.68 102.63 12.64 103.05 12.64C103.47 12.64 103.96 12.68 104.29 12.68C104.45 12.68 104.48 12.61 104.48 12.40C104.48 12.24 104.45 12.18 104.29 12.18L103.32 12.18C103.26 12.18 103.25 11.54 103.25 10.79C103.25 8.96 103.29 6.13 103.36 4.28C103.39 3.88 103.42 3.91 103.56 4.27L106.82 12.32C106.92 12.54 106.99 12.74 107.10 12.74C107.20 12.74 107.27 12.63 107.35 12.45C107.69 11.79 107.87 11.75 108.14 11.09L110.73 4.47C110.85 4.16 110.89 4.02 110.91 4.47C110.94 5.66 110.98 8.47 110.98 9.74C110.98 10.99 110.94 12.18 110.88 12.18L110.25 12.18C110.03 12.18 109.96 12.19 109.96 12.39C109.96 12.63 109.98 12.68 110.18 12.68C110.38 12.68 111.08 12.64 111.68 12.64C112.10 12.64 112.85 12.68 113.18 12.68C113.34 12.68 113.37 12.61 113.37 12.40C113.37 12.22 113.32 12.18 113.15 12.18L112.42 12.18C112.31 12.18 112.21 8.44 112.21 6.03L112.21 4.77C112.21 4.17 112.24 3.77 112.28 3.70L112.94 3.70C113.16 3.70 113.20 3.68 113.20 3.49C113.20 3.25 113.19 3.19 112.99 3.19C112.67 3.19 111.99 3.23 111.57 3.23L110.89 3.23C110.67 3.23 110.64 3.29 110.53 3.58L107.79 10.72C107.70 10.95 107.67 11.02 107.56 10.74L104.62 3.40C104.55 3.22 104.50 3.19 104.36 3.19C104.27 3.19 103.78 3.23 103.47 3.23C102.97 3.23 102.12 3.19 101.92 3.19C101.78 3.19 101.78 3.26 101.78 3.47C101.78 3.64 101.78 3.70 101.92 3.70L102.62 3.70C102.89 3.70 102.89 3.72 102.89 3.84C102.89 4.82 102.68 9.94 102.63 10.79C102.59 11.55 102.59 12.18 102.54 12.18L101.96 12.18C101.74 12.18 101.67 12.19 101.67 12.39ZM131.14 7.91C131.14 11.31 133.50 12.87 136.09 12.87C137.87 12.87 139.65 11.90 139.69 11.59C139.86 10.29 139.92 9.70 139.92 9.66C139.92 9.56 139.87 9.52 139.71 9.51C139.65 9.51 139.59 9.49 139.55 9.49C139.44 9.49 139.38 9.53 139.36 9.70L139.17 11.33C139.16 11.45 138.05 12.24 136.49 12.24C134.36 12.24 132.65 10.29 132.65 7.94C132.65 5.42 134.08 3.54 136.08 3.54C137.93 3.54 139.27 5.01 139.27 5.17C139.27 5.29 139.22 6.40 139.22 6.45C139.22 6.59 139.26 6.64 139.52 6.64C139.72 6.64 139.79 6.62 139.79 6.44C139.79 5.73 139.85 3.92 139.85 3.67C139.85 3.47 139.73 3.44 139.52 3.44C139.30 3.44 139.27 3.50 139.27 3.67L139.27 4.05C139.27 4.16 139.23 4.16 139.10 4.06C138.82 3.86 137.84 3.04 136.18 3.04C133.34 3.04 131.14 4.96 131.14 7.91ZM148.16 12.39C148.16 12.63 148.20 12.68 148.40 12.68C148.72 12.68 149.48 12.64 150.19 12.64C150.85 12.64 151.65 12.68 151.87 12.68C152.04 12.68 152.07 12.61 152.07 12.40C152.07 12.24 152.04 12.18 151.87 12.18L150.91 12.18C150.81 12.18 150.78 9.55 150.78 7.76L150.78 5.87C150.78 5.14 150.81 3.70 150.91 3.70L151.82 3.70C152.04 3.70 152.07 3.68 152.07 3.49C152.07 3.25 152.04 3.19 151.87 3.19C151.55 3.19 150.88 3.23 150.22 3.23C149.41 3.23 148.69 3.19 148.47 3.19C148.29 3.19 148.22 3.21 148.22 3.44C148.22 3.68 148.30 3.70 148.47 3.70L149.39 3.70C149.44 3.70 149.51 4.79 149.51 5.71L149.51 7.08C149.51 8.92 149.49 12.18 149.38 12.18L148.46 12.18C148.23 12.18 148.16 12.19 148.16 12.39ZM159.82 12.39C159.82 12.63 159.82 12.68 160.02 12.68C160.19 12.68 160.51 12.64 161.08 12.64C161.70 12.64 162.25 12.68 162.40 12.68C162.57 12.68 162.57 12.61 162.57 12.40C162.57 12.24 162.57 12.18 162.40 12.18L161.32 12.18C161.32 12.18 161.31 12.18 161.31 12.17C161.32 11.87 162.09 9.90 162.44 9.02C162.51 8.83 162.53 8.79 162.74 8.79L165.56 8.79C165.70 8.79 165.70 8.81 165.77 9.03C166.04 9.77 166.75 11.89 166.75 12.17C166.75 12.18 166.74 12.18 166.74 12.18L165.97 12.18C165.75 12.18 165.73 12.19 165.73 12.39C165.73 12.63 165.75 12.68 165.91 12.68C166.24 12.68 167.10 12.64 167.52 12.64C167.94 12.64 168.62 12.68 168.83 12.68C168.97 12.68 168.98 12.61 168.98 12.40C168.98 12.24 168.97 12.18 168.83 12.18L168.34 12.18C168.24 12.18 167.22 9.34 166.66 7.78L164.98 3.07C164.96 3.00 164.89 2.94 164.81 2.94C164.68 2.94 164.58 3.16 164.50 3.35C164.35 3.71 164.11 3.84 164.00 4.13L162.51 7.57C162.33 8.01 160.62 12.18 160.50 12.18L160.08 12.18C159.85 12.18 159.82 12.19 159.82 12.39ZM162.72 8.33C162.72 8.30 162.75 8.23 162.79 8.13L164.16 4.77C164.21 4.66 164.23 4.61 164.26 4.61C164.28 4.61 164.29 4.63 164.33 4.77L165.49 8.18C165.52 8.25 165.54 8.29 165.54 8.32C165.54 8.36 165.51 8.37 165.41 8.37L162.90 8.37C162.72 8.37 162.72 8.34 162.72 8.33ZM186.54 12.39C186.54 12.63 186.56 12.68 186.76 12.68C187.08 12.68 188.05 12.64 188.47 12.64C188.89 12.64 193.24 12.68 193.56 12.68C193.83 12.68 193.90 12.66 193.91 12.49C193.97 12.08 194.21 10.72 194.21 10.60C194.21 10.47 194.05 10.44 193.89 10.43C193.79 10.42 193.70 10.46 193.69 10.56L193.52 11.76C193.48 12.05 193.47 12.03 193.24 12.04C193.09 12.05 190.58 12.12 189.15 12.12C189.11 12.12 189.07 11.38 189.07 10.54L189.07 6.66C189.07 5.40 189.08 3.70 189.18 3.70L190.16 3.70C190.40 3.70 190.43 3.63 190.43 3.44C190.43 3.23 190.41 3.19 190.18 3.19C189.85 3.19 188.92 3.23 188.50 3.23C188.08 3.23 187.14 3.19 186.91 3.19C186.69 3.19 186.63 3.22 186.63 3.44C186.63 3.65 186.68 3.70 186.87 3.70L187.70 3.70C187.74 3.70 187.77 4.23 187.77 4.90L187.77 8.13C187.77 10.07 187.74 12.18 187.66 12.18L186.82 12.18C186.59 12.18 186.54 12.21 186.54 12.39ZM200.16 5.01C200.16 5.17 200.34 5.17 200.47 5.17C200.62 5.17 200.66 5.15 200.68 4.97L200.79 3.89C200.80 3.81 201.35 3.75 202.10 3.75L204.09 3.75C204.15 3.75 204.18 4.35 204.18 4.97C204.18 6.43 204.12 12.18 203.99 12.18L203.13 12.18C202.90 12.18 202.86 12.19 202.86 12.39C202.86 12.63 202.87 12.68 203.07 12.68C203.39 12.68 204.37 12.64 204.79 12.64C205.21 12.64 206.15 12.68 206.47 12.68C206.64 12.68 206.67 12.61 206.67 12.40C206.67 12.24 206.64 12.18 206.47 12.18L205.48 12.18C205.45 12.18 205.45 11.76 205.45 11.31C205.45 9.56 205.53 5.96 205.53 5.92C205.55 5.18 205.55 3.75 205.65 3.75L207.26 3.75C207.97 3.75 208.80 3.78 208.80 3.85C208.80 3.99 208.75 4.90 208.75 4.97C208.75 5.12 208.82 5.17 209.01 5.17C209.20 5.17 209.27 5.17 209.27 5.03C209.27 3.93 209.33 3.40 209.33 3.14C209.33 2.94 209.24 2.94 209.05 2.94C208.89 2.94 208.84 2.98 208.82 3.16C208.82 3.23 208.18 3.28 207.34 3.28L202.34 3.28C201.68 3.28 200.87 3.28 200.87 3.21L200.87 3.07C200.87 2.94 200.75 2.94 200.65 2.94C200.42 2.94 200.40 3.00 200.38 3.19C200.33 3.89 200.16 4.97 200.16 5.01ZM217.01 12.46C217.01 12.63 217.03 12.70 217.21 12.70C217.36 12.70 218.60 12.64 218.99 12.64C219.84 12.64 220.72 12.70 221.58 12.70C224.20 12.70 226.59 11.07 226.59 7.91C226.59 4.89 224.25 3.07 221.21 3.07C220.65 3.07 219.39 3.23 218.36 3.23C217.88 3.23 217.42 3.22 217.36 3.22C217.18 3.22 217.17 3.32 217.17 3.49C217.17 3.68 217.24 3.70 217.36 3.70L218.33 3.67C218.36 3.67 218.36 4.20 218.36 4.72C218.36 5.91 218.27 12.21 218.19 12.21L217.29 12.21C217.11 12.21 217.01 12.22 217.01 12.46ZM219.59 11.40C219.59 9.46 219.59 7.52 219.60 5.60C219.60 5.03 219.65 3.61 219.69 3.60C219.98 3.53 220.57 3.51 220.92 3.51C223.48 3.51 225.09 5.75 225.09 7.73C225.09 8.95 225.05 12.25 220.37 12.25C220.11 12.25 219.70 12.25 219.60 12.21C219.59 12.19 219.59 11.79 219.59 11.40ZM234.00 12.39C234.00 12.63 234.00 12.68 234.19 12.68C234.36 12.68 234.68 12.64 235.26 12.64C235.87 12.64 236.42 12.68 236.57 12.68C236.74 12.68 236.74 12.61 236.74 12.40C236.74 12.24 236.74 12.18 236.57 12.18L235.49 12.18C235.49 12.18 235.48 12.18 235.48 12.17C235.49 11.87 236.26 9.90 236.61 9.02C236.68 8.83 236.70 8.79 236.91 8.79L239.74 8.79C239.88 8.79 239.88 8.81 239.95 9.03C240.21 9.77 240.93 11.89 240.93 12.17C240.93 12.18 240.91 12.18 240.91 12.18L240.14 12.18C239.92 12.18 239.90 12.19 239.90 12.39C239.90 12.63 239.92 12.68 240.09 12.68C240.41 12.68 241.28 12.64 241.70 12.64C242.12 12.64 242.79 12.68 243.00 12.68C243.14 12.68 243.15 12.61 243.15 12.40C243.15 12.24 243.14 12.18 243.00 12.18L242.51 12.18C242.41 12.18 241.39 9.34 240.83 7.78L239.15 3.07C239.13 3.00 239.06 2.94 238.98 2.94C238.85 2.94 238.76 3.16 238.67 3.35C238.52 3.71 238.28 3.84 238.17 4.13L236.68 7.57C236.50 8.01 234.79 12.18 234.67 12.18L234.25 12.18C234.02 12.18 234.00 12.19 234.00 12.39ZM236.89 8.33C236.89 8.30 236.92 8.23 236.96 8.13L238.34 4.77C238.38 4.66 238.41 4.61 238.43 4.61C238.45 4.61 238.46 4.63 238.50 4.77L239.67 8.18C239.69 8.25 239.71 8.29 239.71 8.32C239.71 8.36 239.68 8.37 239.58 8.37L237.08 8.37C236.89 8.37 236.89 8.34 236.89 8.33Z"></path></g></svg>