<svg data-v-fde0c5aa="" xmlns="http://www.w3.org/2000/svg" viewBox="0 0 300 300" class="font"><!----><defs data-v-fde0c5aa=""><linearGradient data-v-fde0c5aa="" gradientTransform="rotate(25)" id="14955bc7-8516-45b0-8ca3-881f04de68ea" x1="0%" y1="0%" x2="100%" y2="0%"><stop data-v-fde0c5aa="" offset="0%" stop-color="#050922" stop-opacity="1"></stop><stop data-v-fde0c5aa="" offset="100%" stop-color="#6EE6C7" stop-opacity="1"></stop></linearGradient></defs><rect data-v-fde0c5aa="" fill="url(#14955bc7-8516-45b0-8ca3-881f04de68ea)" x="0" y="0" width="300px" height="300px" class="logo-background-square"></rect><defs data-v-fde0c5aa=""><!----></defs><g data-v-fde0c5aa="" id="a0e149eb-50aa-4ec2-a7ac-089694803619" fill="#ffffff" transform="matrix(4.7670641584169875,0,0,4.7670641584169875,38.09317430821929,110.55254477103342)"><path d="M13.46 11.58L13.46 11.58L13.46 11.58Q13.46 12.60 13.11 13.15L13.11 13.15L15.13 13.15L15.13 13.15Q15.00 13.19 14.83 13.34L14.83 13.34L14.83 13.34Q14.66 13.49 14.48 13.65L14.48 13.65L14.48 13.65Q13.99 14.08 13.80 14.08L13.80 14.08L11.77 14.08L11.77 14.08Q12.11 13.58 12.11 12.70L12.11 12.70L12.11 12.70Q12.11 11.83 12.07 11.02L12.07 11.02L12.07 11.02Q12.02 10.21 12.00 9.63L12.00 9.63L12.00 9.63Q11.97 9.04 11.95 8.66L11.95 8.66L11.95 8.66Q11.94 8.28 11.92 7.89L11.92 7.89L11.92 7.89Q11.87 6.75 11.85 6.38L11.85 6.38L11.85 6.38Q11.24 7.44 10.61 8.58L10.61 8.58L10.61 8.58Q9.97 9.71 9.52 10.50L9.52 10.50L9.52 10.50Q9.07 11.29 8.81 11.80L8.81 11.80L8.81 11.80Q8.54 12.31 8.25 12.82L8.25 12.82L8.25 12.82Q8.19 12.92 7.60 13.30L7.60 13.30L7.60 13.30Q7.01 13.69 6.92 13.75L6.92 13.75L6.92 13.75Q6.55 12.60 5.98 11.61L5.98 11.61L5.98 11.61Q5.41 10.62 5.04 10.02L5.04 10.02L5.04 10.02Q4.68 9.43 4.32 8.83L4.32 8.83L3.23 7.02L3.23 7.02Q2.94 10.55 2.79 11.34L2.79 11.34L2.79 11.34Q2.63 12.13 2.49 12.53L2.49 12.53L2.49 12.53Q2.35 12.93 2.14 13.15L2.14 13.15L4.33 13.15L4.33 13.15Q3.19 14.08 3.00 14.08L3.00 14.08L0.75 14.08L0.75 14.08Q1.15 13.69 1.42 12.35L1.42 12.35L1.42 12.35Q1.72 10.86 2.12 5.17L2.12 5.17L0.40 5.17L0.40 5.17Q0.90 4.68 1.59 4.30L1.59 4.30L1.59 4.30Q1.68 4.25 1.73 4.25L1.73 4.25L3.45 4.25L3.45 4.25Q4.03 5.20 4.59 6.14L4.59 6.14L5.73 8.03L5.73 8.03Q6.02 8.51 6.31 8.99L6.31 8.99L6.31 8.99Q6.60 9.46 6.88 9.94L6.88 9.94L6.88 9.94Q7.56 11.11 7.91 11.92L7.91 11.92L7.91 11.92Q8.56 10.78 9.44 9.17L9.44 9.17L9.44 9.17Q11.01 6.28 11.77 4.97L11.77 4.97L11.77 4.97Q11.90 4.76 12.78 4.24L12.78 4.24L12.78 4.24Q12.98 4.12 13.10 4.04L13.10 4.04L13.10 4.04Q13.26 7.03 13.33 8.78L13.33 8.78L13.33 8.78Q13.41 10.53 13.43 10.88L13.43 10.88L13.43 10.88Q13.46 11.22 13.46 11.58ZM16.26 3.41L17.59 2.48L17.63 3.26L17.63 3.62L17.63 3.62Q17.63 3.94 17.55 4.02L17.55 4.02L17.55 4.02Q17.47 4.09 17.37 4.16L17.37 4.16L17.37 4.16Q16.99 4.43 16.26 4.89L16.26 4.89L16.26 4.89Q16.30 4.21 16.30 4.19L16.30 4.19L16.30 4.19Q16.30 4.16 16.26 3.41L16.26 3.41ZM19.02 13.24L19.02 13.24L19.02 13.24Q18.81 13.41 18.62 13.58L18.62 13.58L18.62 13.58Q18.42 13.75 18.21 13.89L18.21 13.89L18.21 13.89Q17.72 14.21 17.27 14.21L17.27 14.21L17.27 14.21Q16.84 14.21 16.67 14.08L16.67 14.08L16.67 14.08Q16.32 13.82 16.32 13.13L16.32 13.13L16.32 9.88L16.32 9.88Q16.32 9.15 16.06 8.93L16.06 8.93L16.06 8.93Q15.93 8.83 15.79 8.83L15.79 8.83L15.79 8.83Q15.65 8.83 15.55 8.84L15.55 8.84L15.55 8.84Q15.45 8.86 15.35 8.88L15.35 8.88L15.35 8.88Q15.24 8.90 15.13 8.92L15.13 8.92L15.13 8.92Q15.48 8.65 15.77 8.44L15.77 8.44L15.77 8.44Q16.07 8.23 16.28 8.09L16.28 8.09L16.28 8.09Q16.50 7.94 16.87 7.68L16.87 7.68L16.87 7.68Q17.25 7.42 17.65 7.21L17.65 7.21L17.65 12.03L17.65 12.03Q17.65 12.73 17.74 12.91L17.74 12.91L17.74 12.91Q17.93 13.29 18.59 13.29L18.59 13.29L18.59 13.29Q18.76 13.29 19.02 13.24ZM20.21 8.16L19.32 8.16L20.21 7.46L20.21 6.49L20.21 6.49Q20.58 6.23 20.73 6.09L20.73 6.09L20.73 6.09Q20.89 5.95 21 5.89L21 5.89L21 5.89Q21.11 5.83 21.23 5.76L21.23 5.76L21.23 5.76Q21.52 5.59 21.54 5.56L21.54 5.56L21.54 7.23L23.73 7.23L23.73 7.23Q23.64 7.23 23.28 7.55L23.28 7.55L23.28 7.55Q22.59 8.16 22.40 8.16L22.40 8.16L21.54 8.16L21.54 11.82L21.54 11.82Q21.54 13.08 22.26 13.28L22.26 13.28L22.26 13.28Q22.48 13.33 22.67 13.33L22.67 13.33L22.67 13.33Q22.99 13.33 23.21 13.24L23.21 13.24L23.21 13.24Q23.43 13.15 23.57 13.07L23.57 13.07L23.57 13.07Q23.15 13.71 22.40 14.04L22.40 14.04L22.40 14.04Q22.01 14.21 21.56 14.21L21.56 14.21L21.56 14.21Q21.12 14.21 20.87 14.05L20.87 14.05L20.87 14.05Q20.62 13.90 20.47 13.64L20.47 13.64L20.47 13.64Q20.21 13.18 20.21 12.41L20.21 12.41L20.21 8.16ZM24.88 3.41L26.20 2.48L26.24 3.26L26.24 3.62L26.24 3.62Q26.24 3.94 26.16 4.02L26.16 4.02L26.16 4.02Q26.08 4.09 25.98 4.16L25.98 4.16L25.98 4.16Q25.60 4.43 24.88 4.89L24.88 4.89L24.88 4.89Q24.91 4.21 24.91 4.19L24.91 4.19L24.91 4.19Q24.91 4.16 24.88 3.41L24.88 3.41ZM27.63 13.24L27.63 13.24L27.63 13.24Q27.43 13.41 27.23 13.58L27.23 13.58L27.23 13.58Q27.04 13.75 26.82 13.89L26.82 13.89L26.82 13.89Q26.33 14.21 25.88 14.21L25.88 14.21L25.88 14.21Q25.46 14.21 25.29 14.08L25.29 14.08L25.29 14.08Q24.94 13.82 24.94 13.13L24.94 13.13L24.94 9.88L24.94 9.88Q24.94 9.15 24.67 8.93L24.67 8.93L24.67 8.93Q24.55 8.83 24.40 8.83L24.40 8.83L24.40 8.83Q24.26 8.83 24.16 8.84L24.16 8.84L24.16 8.84Q24.06 8.86 23.96 8.88L23.96 8.88L23.96 8.88Q23.86 8.90 23.75 8.92L23.75 8.92L23.75 8.92Q24.09 8.65 24.39 8.44L24.39 8.44L24.39 8.44Q24.68 8.23 24.90 8.09L24.90 8.09L24.90 8.09Q25.11 7.94 25.48 7.68L25.48 7.68L25.48 7.68Q25.86 7.42 26.26 7.21L26.26 7.21L26.26 12.03L26.26 12.03Q26.26 12.73 26.35 12.91L26.35 12.91L26.35 12.91Q26.54 13.29 27.20 13.29L27.20 13.29L27.20 13.29Q27.38 13.29 27.63 13.24ZM28.67 13.24L28.67 4.94L28.67 4.94Q28.67 3.92 28.07 3.92L28.07 3.92L28.07 3.92Q27.89 3.92 27.48 4.02L27.48 4.02L27.48 4.02Q27.76 3.81 28.07 3.57L28.07 3.57L28.07 3.57Q28.38 3.34 28.70 3.10L28.70 3.10L28.70 3.10Q29.40 2.62 30.00 2.30L30.00 2.30L30.00 8.58L30.00 8.58Q30.76 7.90 31.70 7.57L31.70 7.57L31.70 7.57Q32.01 7.46 32.25 7.46L32.25 7.46L32.25 7.46Q32.49 7.46 32.68 7.55L32.68 7.55L32.68 7.55Q32.87 7.63 33.00 7.77L33.00 7.77L33.00 7.77Q33.30 8.07 33.30 8.46L33.30 8.46L33.30 8.46Q33.30 8.84 33.11 9.15L33.11 9.15L33.11 9.15Q32.92 9.46 32.63 9.73L32.63 9.73L32.63 9.73Q32.24 10.13 31.47 10.63L31.47 10.63L31.47 10.63Q31.56 10.73 31.77 10.96L31.77 10.96L31.77 10.96Q31.98 11.20 32.24 11.48L32.24 11.48L32.24 11.48Q32.50 11.77 32.80 12.08L32.80 12.08L32.80 12.08Q33.10 12.39 33.37 12.64L33.37 12.64L33.37 12.64Q33.98 13.22 34.17 13.22L34.17 13.22L34.17 13.22Q34.65 13.22 35.12 12.95L35.12 12.95L35.12 12.95Q34.53 13.76 33.67 14.09L33.67 14.09L33.67 14.09Q33.39 14.20 33.17 14.20L33.17 14.20L33.17 14.20Q32.96 14.20 32.83 14.15L32.83 14.15L32.83 14.15Q32.70 14.10 32.59 14.03L32.59 14.03L32.59 14.03Q32.36 13.88 31.98 13.49L31.98 13.49L31.98 13.49Q31.18 12.69 30.00 11.41L30.00 11.41L30.00 12.11L30.00 12.11Q30.00 12.27 29.99 12.47L29.99 12.47L29.99 12.47Q29.99 12.67 30.03 12.86L30.03 12.86L30.03 12.86Q30.13 13.30 30.51 13.30L30.51 13.30L30.51 13.30Q30.65 13.30 30.81 13.23L30.81 13.23L30.81 13.23Q30.67 13.35 30.48 13.52L30.48 13.52L30.48 13.52Q30.29 13.69 30.08 13.85L30.08 13.85L30.08 13.85Q29.57 14.23 29.24 14.23L29.24 14.23L29.24 14.23Q28.67 14.23 28.67 13.24L28.67 13.24ZM30.96 8.39L30.96 8.39L30.96 8.39Q30.00 8.39 30.00 10.86L30.00 10.86L30.00 11.22L30.00 11.22Q31.25 10.72 31.77 9.97L31.77 9.97L31.77 9.97Q31.97 9.68 31.97 9.40L31.97 9.40L31.97 9.40Q31.97 9.13 31.89 8.95L31.89 8.95L31.89 8.95Q31.81 8.78 31.67 8.65L31.67 8.65L31.67 8.65Q31.37 8.39 30.96 8.39ZM40.05 9.28L40.05 12.06L40.04 12.54L40.04 12.54Q40.04 13.07 40.34 13.21L40.34 13.21L40.34 13.21Q40.46 13.27 40.61 13.27L40.61 13.27L40.61 13.27Q40.84 13.27 41.10 13.16L41.10 13.16L41.10 13.16Q40.84 13.27 40.65 13.45L40.65 13.45L40.65 13.45Q40.46 13.62 40.26 13.79L40.26 13.79L40.26 13.79Q39.76 14.21 39.27 14.21L39.27 14.21L39.27 14.21Q38.77 14.21 38.73 13.63L38.73 13.63L38.73 13.63Q38.72 13.48 38.72 13.33L38.72 13.33L38.72 13.33Q37.49 14.18 36.46 14.18L36.46 14.18L36.46 14.18Q35.59 14.18 35.26 13.66L35.26 13.66L35.26 13.66Q35.14 13.47 35.14 13.13L35.14 13.13L35.14 13.13Q35.14 12.80 35.34 12.46L35.34 12.46L35.34 12.46Q35.55 12.12 35.86 11.84L35.86 11.84L35.86 11.84Q36.42 11.32 37.21 10.99L37.21 10.99L37.21 10.99Q37.80 10.73 38.73 10.70L38.73 10.70L38.73 10.40L38.73 10.40Q38.73 9.31 38.53 8.93L38.53 8.93L38.53 8.93Q38.33 8.54 38.01 8.36L38.01 8.36L38.01 8.36Q37.70 8.18 37.28 8.18L37.28 8.18L37.28 8.18Q36.56 8.18 36.01 8.46L36.01 8.46L36.01 8.46Q36.76 7.84 37.11 7.64L37.11 7.64L37.11 7.64Q37.83 7.24 38.41 7.24L38.41 7.24L38.41 7.24Q39.00 7.24 39.29 7.41L39.29 7.41L39.29 7.41Q39.59 7.58 39.76 7.86L39.76 7.86L39.76 7.86Q40.05 8.35 40.05 9.28L40.05 9.28ZM36.84 13.04L36.84 13.04L36.84 13.04Q37.00 13.16 37.22 13.21L37.22 13.21L37.22 13.21Q37.44 13.27 37.87 13.27L37.87 13.27L37.87 13.27Q38.30 13.27 38.73 13.06L38.73 13.06L38.73 11.63L37.62 11.63L37.62 11.63Q37.02 11.63 36.58 11.71L36.58 11.71L36.58 11.71Q36.49 12.00 36.49 12.27L36.49 12.27L36.49 12.27Q36.49 12.54 36.58 12.73L36.58 12.73L36.58 12.73Q36.67 12.92 36.84 13.04ZM44.76 8.78L44.76 8.78L44.76 8.78Q44.89 8.68 44.89 8.57L44.89 8.57L44.89 8.57Q44.89 8.46 44.76 8.40L44.76 8.40L44.76 8.40Q44.63 8.34 44.46 8.31L44.46 8.31L44.46 8.31Q44.19 8.25 43.97 8.25L43.97 8.25L43.97 8.25Q43.74 8.25 43.61 8.27L43.61 8.27L43.61 8.27Q43.48 8.30 43.39 8.36L43.39 8.36L43.39 8.36Q43.20 8.49 43.20 8.82L43.20 8.82L43.20 8.82Q43.20 9.15 43.35 9.35L43.35 9.35L43.35 9.35Q43.49 9.56 43.73 9.71L43.73 9.71L43.73 9.71Q43.96 9.85 44.26 9.95L44.26 9.95L44.26 9.95Q44.56 10.04 44.87 10.13L44.87 10.13L44.87 10.13Q45.19 10.23 45.49 10.34L45.49 10.34L45.49 10.34Q45.79 10.45 46.02 10.62L46.02 10.62L46.02 10.62Q46.55 11.01 46.55 11.68L46.55 11.68L46.55 11.68Q46.55 12.34 45.91 12.97L45.91 12.97L45.91 12.97Q45.37 13.51 44.49 13.89L44.49 13.89L44.49 13.89Q43.67 14.25 43.03 14.25L43.03 14.25L43.03 14.25Q42.25 14.25 41.77 13.92L41.77 13.92L41.77 13.92Q41.60 13.79 41.60 13.60L41.60 13.60L41.60 13.60Q41.60 13.41 41.78 13.24L41.78 13.24L41.78 13.24Q41.96 13.08 42.20 12.94L42.20 12.94L42.20 12.94Q42.44 12.80 42.68 12.68L42.68 12.68L42.68 12.68Q42.92 12.55 43.04 12.41L43.04 12.41L43.04 12.41Q42.92 12.54 42.92 12.71L42.92 12.71L42.92 12.71Q42.92 12.89 43.11 13.01L43.11 13.01L43.11 13.01Q43.30 13.13 43.56 13.19L43.56 13.19L43.56 13.19Q44.01 13.30 44.43 13.30L44.43 13.30L44.43 13.30Q44.84 13.30 45.03 13.15L45.03 13.15L45.03 13.15Q45.22 13.00 45.22 12.63L45.22 12.63L45.22 12.63Q45.22 12.27 45.08 12.04L45.08 12.04L45.08 12.04Q44.93 11.81 44.70 11.65L44.70 11.65L44.70 11.65Q44.47 11.48 44.17 11.37L44.17 11.37L44.17 11.37Q43.87 11.26 43.56 11.15L43.56 11.15L43.56 11.15Q43.24 11.05 42.94 10.94L42.94 10.94L42.94 10.94Q42.64 10.83 42.41 10.67L42.41 10.67L42.41 10.67Q41.89 10.32 41.89 9.76L41.89 9.76L41.89 9.76Q41.89 9.23 42.52 8.62L42.52 8.62L42.52 8.62Q43.07 8.10 43.66 7.81L43.66 7.81L43.66 7.81Q44.68 7.31 45.20 7.31L45.20 7.31L45.20 7.31Q45.74 7.31 45.98 7.43L45.98 7.43L45.98 7.43Q46.22 7.55 46.22 7.63L46.22 7.63L46.22 7.63Q46.22 7.72 46.16 7.79L46.16 7.79L46.16 7.79Q46.11 7.85 46.03 7.91L46.03 7.91L46.03 7.91Q45.95 7.97 45.87 8.02L45.87 8.02L45.87 8.02Q45.79 8.07 45.64 8.16L45.64 8.16L45.64 8.16Q45.49 8.26 45.23 8.42L45.23 8.42L45.23 8.42Q44.98 8.58 44.76 8.78Z"></path></g><!----><!----></svg>